<svg width="3" height="16" viewBox="0 0 3 16" fill="none" xmlns="http://www.w3.org/2000/svg">
<path d="M0.00750017 1.59984C-0.0134353 1.39758 0.009576 1.19332 0.0750504 1.00023C0.140525 0.807129 0.247008 0.629483 0.387634 0.478744C0.528259 0.328005 0.699904 0.207522 0.891498 0.125062C1.08309 0.0426033 1.29038 0 1.5 0C1.70962 0 1.91691 0.0426033 2.1085 0.125062C2.3001 0.207522 2.47174 0.328005 2.61237 0.478744C2.75299 0.629483 2.85948 0.807129 2.92495 1.00023C2.99042 1.19332 3.01344 1.39758 2.9925 1.59984L2.4105 10.8363C2.38802 11.0553 2.28238 11.2584 2.11412 11.4062C1.94586 11.5539 1.72698 11.6357 1.5 11.6357C1.27302 11.6357 1.05414 11.5539 0.885877 11.4062C0.717615 11.2584 0.611984 11.0553 0.5895 10.8363L0.00750017 1.59984ZM0 14.5454C0 14.1597 0.158036 13.7897 0.43934 13.5169C0.720645 13.2441 1.10218 13.0909 1.5 13.0909C1.89782 13.0909 2.27936 13.2441 2.56066 13.5169C2.84196 13.7897 3 14.1597 3 14.5454C3 14.9312 2.84196 15.3012 2.56066 15.574C2.27936 15.8468 1.89782 16 1.5 16C1.10218 16 0.720645 15.8468 0.43934 15.574C0.158036 15.3012 0 14.9312 0 14.5454Z" fill="white"/>
</svg>
